<svg xmlns="http://www.w3.org/2000/svg" viewBox="0 0 1200 420" role="img" aria-labelledby="title desc" data-geometry="v3" data-movement="chest-press"><title id="title">Dumbbell Chest Press — START, MOVE, FINISH</title><desc id="desc">Movement-specific three-state Shift Fit coaching sequence for Dumbbell Chest Press. Lower dumbbells under control towards chest level, then press smoothly.</desc><defs><linearGradient id="bg" x1="0" y1="0" x2="1" y2="1"><stop stop-color="#10261a"/><stop offset="1" stop-color="#244f38"/></linearGradient><filter id="shadow"><feDropShadow dy="7" stdDeviation="9" flood-opacity=".18"/></filter></defs><rect width="1200" height="420" rx="30" fill="url(#bg)"/><text x="38" y="48" fill="#c7eb16" font-family="Arial,sans-serif" font-size="17" font-weight="800">SHIFT FIT · DUMBBELL CHEST PRESS</text><text x="38" y="78" fill="#fff" font-family="Arial,sans-serif" font-size="16">Lower dumbbells under control towards chest level, then press smoothly.</text><g filter="url(#shadow)"><g transform="translate(35 118)"><rect width="350" height="270" rx="22" fill="#fffdf8"/><text x="24" y="32" fill="#173c29" font-family="Arial,sans-serif" font-size="16" font-weight="800">START</text><path d="M42 225h266" stroke="#c8cec2" stroke-width="4"/><circle cx="67" cy="174" r="17" fill="#d7b08a" stroke="#173c29" stroke-width="4"/><path d="M91 174L174 174" stroke="#173c29" stroke-width="18" stroke-linecap="round"/><path d="M112 160L140 94" stroke="#173c29" stroke-width="12" stroke-linecap="round"/><path d="M140 94L160 72" stroke="#173c29" stroke-width="12" stroke-linecap="round"/><path d="M112 188L140 114" stroke="#173c29" stroke-width="12" stroke-linecap="round"/><path d="M140 114L160 92" stroke="#173c29" stroke-width="12" stroke-linecap="round"/><path d="M174 174L214 148" stroke="#173c29" stroke-width="14" stroke-linecap="round"/><path d="M214 148L245 216" stroke="#173c29" stroke-width="14" stroke-linecap="round"/><path d="M174 174L212 200" stroke="#173c29" stroke-width="14" stroke-linecap="round"/><path d="M212 200L248 220" stroke="#173c29" stroke-width="14" stroke-linecap="round"/><g transform="translate(160 72)" stroke="#173c29" stroke-width="4"><path d="M-13 0h26"/><rect x="-18" y="-7" width="7" height="14" fill="#66715f"/><rect x="11" y="-7" width="7" height="14" fill="#66715f"/></g><g transform="translate(160 92)" stroke="#173c29" stroke-width="4"><path d="M-13 0h26"/><rect x="-18" y="-7" width="7" height="14" fill="#66715f"/><rect x="11" y="-7" width="7" height="14" fill="#66715f"/></g><text x="20" y="252" fill="#53624d" font-family="Arial,sans-serif" font-size="12.5">stable safe setup</text></g><g transform="translate(425 118)"><rect width="350" height="270" rx="22" fill="#fffdf8"/><text x="24" y="32" fill="#173c29" font-family="Arial,sans-serif" font-size="16" font-weight="800">MOVE</text><path d="M42 225h266" stroke="#c8cec2" stroke-width="4"/><circle cx="67" cy="174" r="17" fill="#d7b08a" stroke="#173c29" stroke-width="4"/><path d="M91 174L174 174" stroke="#173c29" stroke-width="18" stroke-linecap="round"/><path d="M112 160L140 151" stroke="#173c29" stroke-width="12" stroke-linecap="round"/><path d="M140 151L160 166" stroke="#173c29" stroke-width="12" stroke-linecap="round"/><path d="M112 188L140 171" stroke="#173c29" stroke-width="12" stroke-linecap="round"/><path d="M140 171L160 186" stroke="#173c29" stroke-width="12" stroke-linecap="round"/><path d="M174 174L214 148" stroke="#173c29" stroke-width="14" stroke-linecap="round"/><path d="M214 148L245 216" stroke="#173c29" stroke-width="14" stroke-linecap="round"/><path d="M174 174L212 200" stroke="#173c29" stroke-width="14" stroke-linecap="round"/><path d="M212 200L248 220" stroke="#173c29" stroke-width="14" stroke-linecap="round"/><g transform="translate(160 166)" stroke="#173c29" stroke-width="4"><path d="M-13 0h26"/><rect x="-18" y="-7" width="7" height="14" fill="#66715f"/><rect x="11" y="-7" width="7" height="14" fill="#66715f"/></g><g transform="translate(160 186)" stroke="#173c29" stroke-width="4"><path d="M-13 0h26"/><rect x="-18" y="-7" width="7" height="14" fill="#66715f"/><rect x="11" y="-7" width="7" height="14" fill="#66715f"/></g><text x="20" y="252" fill="#53624d" font-family="Arial,sans-serif" font-size="12.5">controlled intended path</text></g><g transform="translate(815 118)"><rect width="350" height="270" rx="22" fill="#fffdf8"/><text x="24" y="32" fill="#173c29" font-family="Arial,sans-serif" font-size="16" font-weight="800">FINISH</text><path d="M42 225h266" stroke="#c8cec2" stroke-width="4"/><circle cx="67" cy="174" r="17" fill="#d7b08a" stroke="#173c29" stroke-width="4"/><path d="M91 174L174 174" stroke="#173c29" stroke-width="18" stroke-linecap="round"/><path d="M112 160L140 94" stroke="#173c29" stroke-width="12" stroke-linecap="round"/><path d="M140 94L160 72" stroke="#173c29" stroke-width="12" stroke-linecap="round"/><path d="M112 188L140 114" stroke="#173c29" stroke-width="12" stroke-linecap="round"/><path d="M140 114L160 92" stroke="#173c29" stroke-width="12" stroke-linecap="round"/><path d="M174 174L214 148" stroke="#173c29" stroke-width="14" stroke-linecap="round"/><path d="M214 148L245 216" stroke="#173c29" stroke-width="14" stroke-linecap="round"/><path d="M174 174L212 200" stroke="#173c29" stroke-width="14" stroke-linecap="round"/><path d="M212 200L248 220" stroke="#173c29" stroke-width="14" stroke-linecap="round"/><g transform="translate(160 72)" stroke="#173c29" stroke-width="4"><path d="M-13 0h26"/><rect x="-18" y="-7" width="7" height="14" fill="#66715f"/><rect x="11" y="-7" width="7" height="14" fill="#66715f"/></g><g transform="translate(160 92)" stroke="#173c29" stroke-width="4"><path d="M-13 0h26"/><rect x="-18" y="-7" width="7" height="14" fill="#66715f"/><rect x="11" y="-7" width="7" height="14" fill="#66715f"/></g><text x="20" y="252" fill="#53624d" font-family="Arial,sans-serif" font-size="12.5">controlled return/end</text></g></g><path d="M393 250h26m365 0h26" stroke="#c7eb16" stroke-width="7" stroke-linecap="round"/><path d="M411 242l9 8-9 8M802 242l9 8-9 8" fill="none" stroke="#c7eb16" stroke-width="6" stroke-linecap="round" stroke-linejoin="round"/></svg>