<svg xmlns="http://www.w3.org/2000/svg" viewBox="0 0 1200 420" role="img" aria-labelledby="title desc" data-geometry="v3" data-movement="overhead-press"><title id="title">Overhead Press — START, MOVE, FINISH</title><desc id="desc">Movement-specific three-state Shift Fit coaching sequence for Overhead Press. Press from shoulder height overhead without leaning back; lower under control.</desc><defs><linearGradient id="bg" x1="0" y1="0" x2="1" y2="1"><stop stop-color="#10261a"/><stop offset="1" stop-color="#244f38"/></linearGradient><filter id="shadow"><feDropShadow dy="7" stdDeviation="9" flood-opacity=".18"/></filter></defs><rect width="1200" height="420" rx="30" fill="url(#bg)"/><text x="38" y="48" fill="#c7eb16" font-family="Arial,sans-serif" font-size="17" font-weight="800">SHIFT FIT · OVERHEAD PRESS</text><text x="38" y="78" fill="#fff" font-family="Arial,sans-serif" font-size="16">Press from shoulder height overhead without leaning back; lower under control.</text><g filter="url(#shadow)"><g transform="translate(35 118)"><rect width="350" height="270" rx="22" fill="#fffdf8"/><text x="24" y="32" fill="#173c29" font-family="Arial,sans-serif" font-size="16" font-weight="800">START</text><path d="M42 225h266" stroke="#c8cec2" stroke-width="4"/><circle cx="175" cy="60" r="17" fill="#d7b08a" stroke="#173c29" stroke-width="4"/><path d="M175 84L175 150" stroke="#173c29" stroke-width="18" stroke-linecap="round"/><path d="M148 94L146.5 126" stroke="#173c29" stroke-width="12" stroke-linecap="round"/><path d="M146.5 126L145 158" stroke="#173c29" stroke-width="12" stroke-linecap="round"/><path d="M202 94L203.5 126" stroke="#173c29" stroke-width="12" stroke-linecap="round"/><path d="M203.5 126L205 158" stroke="#173c29" stroke-width="12" stroke-linecap="round"/><path d="M175 150L158 193" stroke="#173c29" stroke-width="14" stroke-linecap="round"/><path d="M158 193L151 225" stroke="#173c29" stroke-width="14" stroke-linecap="round"/><path d="M175 150L192 193" stroke="#173c29" stroke-width="14" stroke-linecap="round"/><path d="M192 193L199 225" stroke="#173c29" stroke-width="14" stroke-linecap="round"/><g transform="translate(145 158)" stroke="#173c29" stroke-width="4"><path d="M-13 0h26"/><rect x="-18" y="-7" width="7" height="14" fill="#66715f"/><rect x="11" y="-7" width="7" height="14" fill="#66715f"/></g><g transform="translate(205 158)" stroke="#173c29" stroke-width="4"><path d="M-13 0h26"/><rect x="-18" y="-7" width="7" height="14" fill="#66715f"/><rect x="11" y="-7" width="7" height="14" fill="#66715f"/></g><text x="20" y="252" fill="#53624d" font-family="Arial,sans-serif" font-size="12.5">stable safe setup</text></g><g transform="translate(425 118)"><rect width="350" height="270" rx="22" fill="#fffdf8"/><text x="24" y="32" fill="#173c29" font-family="Arial,sans-serif" font-size="16" font-weight="800">MOVE</text><path d="M42 225h266" stroke="#c8cec2" stroke-width="4"/><circle cx="175" cy="60" r="17" fill="#d7b08a" stroke="#173c29" stroke-width="4"/><path d="M175 84L175 150" stroke="#173c29" stroke-width="18" stroke-linecap="round"/><path d="M148 94L145 55" stroke="#173c29" stroke-width="12" stroke-linecap="round"/><path d="M145 55L145 27" stroke="#173c29" stroke-width="12" stroke-linecap="round"/><path d="M202 94L205 55" stroke="#173c29" stroke-width="12" stroke-linecap="round"/><path d="M205 55L205 27" stroke="#173c29" stroke-width="12" stroke-linecap="round"/><path d="M175 150L158 193" stroke="#173c29" stroke-width="14" stroke-linecap="round"/><path d="M158 193L151 225" stroke="#173c29" stroke-width="14" stroke-linecap="round"/><path d="M175 150L192 193" stroke="#173c29" stroke-width="14" stroke-linecap="round"/><path d="M192 193L199 225" stroke="#173c29" stroke-width="14" stroke-linecap="round"/><g transform="translate(145 27)" stroke="#173c29" stroke-width="4"><path d="M-13 0h26"/><rect x="-18" y="-7" width="7" height="14" fill="#66715f"/><rect x="11" y="-7" width="7" height="14" fill="#66715f"/></g><g transform="translate(205 27)" stroke="#173c29" stroke-width="4"><path d="M-13 0h26"/><rect x="-18" y="-7" width="7" height="14" fill="#66715f"/><rect x="11" y="-7" width="7" height="14" fill="#66715f"/></g><text x="20" y="252" fill="#53624d" font-family="Arial,sans-serif" font-size="12.5">controlled intended path</text></g><g transform="translate(815 118)"><rect width="350" height="270" rx="22" fill="#fffdf8"/><text x="24" y="32" fill="#173c29" font-family="Arial,sans-serif" font-size="16" font-weight="800">FINISH</text><path d="M42 225h266" stroke="#c8cec2" stroke-width="4"/><circle cx="175" cy="60" r="17" fill="#d7b08a" stroke="#173c29" stroke-width="4"/><path d="M175 84L175 150" stroke="#173c29" stroke-width="18" stroke-linecap="round"/><path d="M148 94L145 55" stroke="#173c29" stroke-width="12" stroke-linecap="round"/><path d="M145 55L145 27" stroke="#173c29" stroke-width="12" stroke-linecap="round"/><path d="M202 94L205 55" stroke="#173c29" stroke-width="12" stroke-linecap="round"/><path d="M205 55L205 27" stroke="#173c29" stroke-width="12" stroke-linecap="round"/><path d="M175 150L158 193" stroke="#173c29" stroke-width="14" stroke-linecap="round"/><path d="M158 193L151 225" stroke="#173c29" stroke-width="14" stroke-linecap="round"/><path d="M175 150L192 193" stroke="#173c29" stroke-width="14" stroke-linecap="round"/><path d="M192 193L199 225" stroke="#173c29" stroke-width="14" stroke-linecap="round"/><g transform="translate(145 27)" stroke="#173c29" stroke-width="4"><path d="M-13 0h26"/><rect x="-18" y="-7" width="7" height="14" fill="#66715f"/><rect x="11" y="-7" width="7" height="14" fill="#66715f"/></g><g transform="translate(205 27)" stroke="#173c29" stroke-width="4"><path d="M-13 0h26"/><rect x="-18" y="-7" width="7" height="14" fill="#66715f"/><rect x="11" y="-7" width="7" height="14" fill="#66715f"/></g><text x="20" y="252" fill="#53624d" font-family="Arial,sans-serif" font-size="12.5">controlled return/end</text></g></g><path d="M393 250h26m365 0h26" stroke="#c7eb16" stroke-width="7" stroke-linecap="round"/><path d="M411 242l9 8-9 8M802 242l9 8-9 8" fill="none" stroke="#c7eb16" stroke-width="6" stroke-linecap="round" stroke-linejoin="round"/></svg>