<svg xmlns="http://www.w3.org/2000/svg" viewBox="0 0 1200 420" role="img" aria-labelledby="title desc" data-geometry="v3" data-movement="squat"><title id="title">Goblet Squat — START, MOVE, FINISH</title><desc id="desc">Movement-specific three-state Shift Fit coaching sequence for Goblet Squat. Set your feet where they feel natural. Hold the weight close to your chest. Sit your hips back and down, keep your chest proud, then drive through the whole foot to stand tall.</desc><defs><linearGradient id="bg" x1="0" y1="0" x2="1" y2="1"><stop stop-color="#10261a"/><stop offset="1" stop-color="#244f38"/></linearGradient><filter id="shadow"><feDropShadow dy="7" stdDeviation="9" flood-opacity=".18"/></filter></defs><rect width="1200" height="420" rx="30" fill="url(#bg)"/><text x="38" y="48" fill="#c7eb16" font-family="Arial,sans-serif" font-size="17" font-weight="800">SHIFT FIT · GOBLET SQUAT</text><text x="38" y="78" fill="#fff" font-family="Arial,sans-serif" font-size="16">Set your feet where they feel natural. Hold the weight close to your chest. Sit your hips back and down, keep yo</text><g filter="url(#shadow)"><g transform="translate(35 118)"><rect width="350" height="270" rx="22" fill="#fffdf8"/><text x="24" y="32" fill="#173c29" font-family="Arial,sans-serif" font-size="16" font-weight="800">START</text><path d="M42 225h266" stroke="#c8cec2" stroke-width="4"/><circle cx="175" cy="60" r="17" fill="#d7b08a" stroke="#173c29" stroke-width="4"/><path d="M175 84L175 150" stroke="#173c29" stroke-width="18" stroke-linecap="round"/><path d="M148 94L156.5 111" stroke="#173c29" stroke-width="12" stroke-linecap="round"/><path d="M156.5 111L165 128" stroke="#173c29" stroke-width="12" stroke-linecap="round"/><path d="M202 94L193.5 111" stroke="#173c29" stroke-width="12" stroke-linecap="round"/><path d="M193.5 111L185 128" stroke="#173c29" stroke-width="12" stroke-linecap="round"/><path d="M175 150L145 193" stroke="#173c29" stroke-width="14" stroke-linecap="round"/><path d="M145 193L135 225" stroke="#173c29" stroke-width="14" stroke-linecap="round"/><path d="M175 150L205 193" stroke="#173c29" stroke-width="14" stroke-linecap="round"/><path d="M205 193L215 225" stroke="#173c29" stroke-width="14" stroke-linecap="round"/><g transform="translate(175 128)" stroke="#173c29" stroke-width="4"><path d="M-13 0h26"/><rect x="-18" y="-7" width="7" height="14" fill="#66715f"/><rect x="11" y="-7" width="7" height="14" fill="#66715f"/></g><text x="20" y="252" fill="#53624d" font-family="Arial,sans-serif" font-size="12.5">feet stable around shoulder-width/natural stance · weight held</text></g><g transform="translate(425 118)"><rect width="350" height="270" rx="22" fill="#fffdf8"/><text x="24" y="32" fill="#173c29" font-family="Arial,sans-serif" font-size="16" font-weight="800">MOVE</text><path d="M42 225h266" stroke="#c8cec2" stroke-width="4"/><circle cx="157" cy="104" r="17" fill="#d7b08a" stroke="#173c29" stroke-width="4"/><path d="M157 128L175 198" stroke="#173c29" stroke-width="18" stroke-linecap="round"/><path d="M130 138L147.5 149" stroke="#173c29" stroke-width="12" stroke-linecap="round"/><path d="M147.5 149L165 160" stroke="#173c29" stroke-width="12" stroke-linecap="round"/><path d="M184 138L184.5 149" stroke="#173c29" stroke-width="12" stroke-linecap="round"/><path d="M184.5 149L185 160" stroke="#173c29" stroke-width="12" stroke-linecap="round"/><path d="M175 198L145 203" stroke="#173c29" stroke-width="14" stroke-linecap="round"/><path d="M145 203L135 225" stroke="#173c29" stroke-width="14" stroke-linecap="round"/><path d="M175 198L205 203" stroke="#173c29" stroke-width="14" stroke-linecap="round"/><path d="M205 203L215 225" stroke="#173c29" stroke-width="14" stroke-linecap="round"/><g transform="translate(175 160)" stroke="#173c29" stroke-width="4"><path d="M-13 0h26"/><rect x="-18" y="-7" width="7" height="14" fill="#66715f"/><rect x="11" y="-7" width="7" height="14" fill="#66715f"/></g><text x="20" y="252" fill="#53624d" font-family="Arial,sans-serif" font-size="12.5">hips travel back and down · knees track broadly with toes</text></g><g transform="translate(815 118)"><rect width="350" height="270" rx="22" fill="#fffdf8"/><text x="24" y="32" fill="#173c29" font-family="Arial,sans-serif" font-size="16" font-weight="800">FINISH</text><path d="M42 225h266" stroke="#c8cec2" stroke-width="4"/><circle cx="175" cy="60" r="17" fill="#d7b08a" stroke="#173c29" stroke-width="4"/><path d="M175 84L175 150" stroke="#173c29" stroke-width="18" stroke-linecap="round"/><path d="M148 94L156.5 111" stroke="#173c29" stroke-width="12" stroke-linecap="round"/><path d="M156.5 111L165 128" stroke="#173c29" stroke-width="12" stroke-linecap="round"/><path d="M202 94L193.5 111" stroke="#173c29" stroke-width="12" stroke-linecap="round"/><path d="M193.5 111L185 128" stroke="#173c29" stroke-width="12" stroke-linecap="round"/><path d="M175 150L145 193" stroke="#173c29" stroke-width="14" stroke-linecap="round"/><path d="M145 193L135 225" stroke="#173c29" stroke-width="14" stroke-linecap="round"/><path d="M175 150L205 193" stroke="#173c29" stroke-width="14" stroke-linecap="round"/><path d="M205 193L215 225" stroke="#173c29" stroke-width="14" stroke-linecap="round"/><g transform="translate(175 128)" stroke="#173c29" stroke-width="4"><path d="M-13 0h26"/><rect x="-18" y="-7" width="7" height="14" fill="#66715f"/><rect x="11" y="-7" width="7" height="14" fill="#66715f"/></g><text x="20" y="252" fill="#53624d" font-family="Arial,sans-serif" font-size="12.5">stand tall under control · hips and knees extended without hyp</text></g></g><path d="M393 250h26m365 0h26" stroke="#c7eb16" stroke-width="7" stroke-linecap="round"/><path d="M411 242l9 8-9 8M802 242l9 8-9 8" fill="none" stroke="#c7eb16" stroke-width="6" stroke-linecap="round" stroke-linejoin="round"/></svg>