<svg xmlns="http://www.w3.org/2000/svg" viewBox="0 0 1200 800" role="img" aria-labelledby="title desc"><title id="title">Shift Fit exercise guidance batch two</title><desc id="desc">Consistent line guidance for goblet squat, dumbbell floor press, bird dog and glute bridge.</desc><defs><style>.s{fill:none;stroke:currentColor;stroke-width:10;stroke-linecap:round;stroke-linejoin:round}.t{font:700 28px system-ui,sans-serif;fill:currentColor}.n{font:600 20px system-ui,sans-serif;fill:currentColor}</style><symbol id="goblet-squat" viewBox="0 0 280 280"><circle class="s" cx="115" cy="45" r="22"/><path class="s" d="M115 70l-15 80 60 35M100 105l35 10M100 105l-20 35M100 150l-5 75M160 185l35 50M175 170h65v55h-65"/><rect class="s" x="128" y="90" width="28" height="34" rx="5"/></symbol><symbol id="floor-press" viewBox="0 0 280 280"><circle class="s" cx="55" cy="185" r="20"/><path class="s" d="M75 185h90M95 185l35-45M130 140l35 45M165 185l45 35M165 185l35-55M120 150v-70M150 150v-70"/><rect class="s" x="105" y="55" width="28" height="18"/><rect class="s" x="135" y="55" width="28" height="18"/></symbol><symbol id="bird-dog" viewBox="0 0 280 280"><circle class="s" cx="105" cy="110" r="20"/><path class="s" d="M125 125l45 30M145 140l-35 60M160 150l45 55M120 130l-60-40M170 155l65-35"/></symbol><symbol id="glute-bridge" viewBox="0 0 280 280"><circle class="s" cx="45" cy="190" r="20"/><path class="s" d="M65 190l70-35 65 25M135 155l35 70M200 180l35 45"/><path class="s" d="M115 120v-45M100 90l15-15 15 15"/></symbol></defs><g transform="translate(40 40)"><text class="t" x="0" y="0">SHIFT FIT — VISUAL GUIDANCE / BATCH 002</text><g transform="translate(0 60)"><use href="#goblet-squat" width="260" height="260"/><text class="n" x="35" y="285">GOBLET SQUAT</text></g><g transform="translate(290 60)"><use href="#floor-press" width="260" height="260"/><text class="n" x="25" y="285">FLOOR PRESS</text></g><g transform="translate(580 60)"><use href="#bird-dog" width="260" height="260"/><text class="n" x="55" y="285">BIRD DOG</text></g><g transform="translate(870 60)"><use href="#glute-bridge" width="260" height="260"/><text class="n" x="30" y="285">GLUTE BRIDGE</text></g><text class="n" x="0" y="410">Shift instructional line system — assets remain subject to member-facing visual QA before publication.</text></g></svg>